<svg width="12" height="7" viewBox="0 0 12 7" fill="none" xmlns="http://www.w3.org/2000/svg">
<path d="M5.81842 4.5792L5.83258 4.40932L4.69755 3.15254L1.76076 0.222204C1.61738 0.0787115 1.42315 0 1.21929 0C1.01543 0 0.822563 0.0787115 0.678844 0.222204L0.222657 0.678164C0.0792777 0.821544 0 1.0126 0 1.21635C0 1.4202 0.0787115 1.61138 0.222091 1.75476L5.24479 6.77791C5.38873 6.92185 5.58047 7.00056 5.78444 7C5.98955 7.00056 6.1814 6.92185 6.32512 6.77791L11.3483 1.75476C11.4915 1.61138 11.5704 1.42032 11.5704 1.21635C11.5704 1.0126 11.4914 0.821544 11.3483 0.678164L10.8921 0.222204C10.7489 0.0787115 10.5578 0 10.3539 0C10.1502 0 9.96906 0.0787115 9.8258 0.222204L6.87259 3.18561L5.60607 4.50841C5.57775 4.6783 6.46453 4.40932 6.04493 4.40932L6.31391 4.4801C6.31391 4.4801 5.81842 4.15937 5.81842 4.5792Z" fill="#333333"/>
</svg>
