<svg width="17" height="17" viewBox="0 0 17 17" fill="none" xmlns="http://www.w3.org/2000/svg">
<g clip-path="url(#clip0)">
<path d="M8.49999 11.3334C8.35478 11.3334 8.21595 11.2739 8.11608 11.1691L4.39732 7.27325C4.07503 6.93608 4.31445 6.37508 4.78124 6.37508H6.72916V2.30216C6.72916 1.81412 7.12653 1.41675 7.61457 1.41675H9.38541C9.87345 1.41675 10.2708 1.81412 10.2708 2.30216V6.37508H12.2187C12.6855 6.37508 12.9249 6.93608 12.6027 7.27325L8.88391 11.1691C8.78403 11.2739 8.6452 11.3334 8.49999 11.3334Z" fill="white"/>
<path d="M15.7604 15.5833H1.23958C0.556042 15.5833 0 15.0273 0 14.3438V13.9896C0 13.306 0.556042 12.75 1.23958 12.75H15.7604C16.444 12.75 17 13.306 17 13.9896V14.3438C17 15.0273 16.444 15.5833 15.7604 15.5833Z" fill="white"/>
</g>
<defs>
<clipPath id="clip0">
<rect width="17" height="17" fill="white"/>
</clipPath>
</defs>
</svg>
