<svg width="17" height="17" viewBox="0 0 17 17" fill="none" xmlns="http://www.w3.org/2000/svg">
<g clip-path="url(#clip0)">
<path d="M16.575 7.36099C16.5744 7.3606 16.5741 7.36008 16.5737 7.35969L9.639 0.425286C9.34341 0.12957 8.95042 -0.0332031 8.5324 -0.0332031C8.11437 -0.0332031 7.72138 0.12957 7.42567 0.425286L0.494632 7.35619C0.492297 7.35853 0.489833 7.36099 0.487628 7.36333C-0.119368 7.97382 -0.11833 8.96434 0.490611 9.57328C0.768818 9.85162 1.13613 10.0127 1.52899 10.0297C1.54507 10.0313 1.56115 10.032 1.57737 10.032H1.85363V15.1352C1.85363 16.1452 2.67541 16.9668 3.68538 16.9668H6.39844C6.67354 16.9668 6.89649 16.7437 6.89649 16.4688V12.4678C6.89649 12.007 7.27145 11.6321 7.73228 11.6321H9.33252C9.79334 11.6321 10.1682 12.007 10.1682 12.4678V16.4688C10.1682 16.7437 10.3911 16.9668 10.6662 16.9668H13.3793C14.3894 16.9668 15.211 16.1452 15.211 15.1352V10.032H15.4673C15.8852 10.032 16.2782 9.86926 16.5741 9.57341C17.1836 8.96356 17.1839 7.97123 16.575 7.36099ZM15.8697 8.86914C15.7621 8.97666 15.6192 9.03594 15.4673 9.03594H14.713C14.4379 9.03594 14.2149 9.25889 14.2149 9.53398V15.1352C14.2149 15.5959 13.8401 15.9707 13.3793 15.9707H11.1643V12.4678C11.1643 11.4578 10.3426 10.636 9.33252 10.636H7.73228C6.72218 10.636 5.9004 11.4578 5.9004 12.4678V15.9707H3.68538C3.22469 15.9707 2.84972 15.5959 2.84972 15.1352V9.53398C2.84972 9.25889 2.62677 9.03594 2.35168 9.03594H1.61031C1.60253 9.03542 1.59488 9.03503 1.58696 9.0349C1.43859 9.0323 1.29942 8.97342 1.19514 8.86901C0.973355 8.64723 0.973355 8.28627 1.19514 8.06435C1.19527 8.06435 1.19527 8.06422 1.1954 8.06409L1.19579 8.06371L8.1302 1.12956C8.23759 1.02204 8.38039 0.962893 8.5324 0.962893C8.68428 0.962893 8.82708 1.02204 8.9346 1.12956L15.8674 8.06228C15.8685 8.06332 15.8697 8.06435 15.8707 8.06539C16.0913 8.28757 16.0909 8.64774 15.8697 8.86914Z" fill="white"/>
</g>
<defs>
<clipPath id="clip0">
<rect width="17" height="17" fill="white"/>
</clipPath>
</defs>
</svg>
