<svg width="56" height="56" viewBox="0 0 56 56" fill="none" xmlns="http://www.w3.org/2000/svg">
<g clip-path="url(#clip0)">
<path d="M27.5567 0.834961C12.3606 0.834961 0.0610352 13.1324 0.0610352 28.3306C0.0610352 33.1533 1.31885 37.8636 3.70735 42.018L0.164664 53.0195C-0.0824511 53.7864 0.120611 54.6272 0.690361 55.1969C1.25466 55.7612 2.09334 55.9718 2.86783 55.7226L13.8693 52.18C18.0237 54.5685 22.734 55.8263 27.5567 55.8263C42.7528 55.8263 55.0523 43.5288 55.0523 28.3306C55.0523 13.1345 42.7549 0.834961 27.5567 0.834961ZM27.5567 51.5301C23.2005 51.5301 18.9542 50.3146 15.2769 48.0151C14.7478 47.6845 14.0908 47.5951 13.4795 47.7919L5.53785 50.3495L8.09542 42.4078C8.28926 41.8053 8.20744 41.1475 7.8718 40.6104C5.57267 36.9331 4.35723 32.6868 4.35723 28.3306C4.35723 15.5385 14.7646 5.13116 27.5567 5.13116C40.3488 5.13116 50.7561 15.5385 50.7561 28.3306C50.7561 41.1227 40.3488 51.5301 27.5567 51.5301ZM30.2418 28.3306C30.2418 29.8133 29.0398 31.0157 27.5567 31.0157C26.0736 31.0157 24.8716 29.8133 24.8716 28.3306C24.8716 26.8475 26.0736 25.6455 27.5567 25.6455C29.0398 25.6455 30.2418 26.8475 30.2418 28.3306ZM40.9823 28.3306C40.9823 29.8133 39.7803 31.0157 38.2972 31.0157C36.8141 31.0157 35.6121 29.8133 35.6121 28.3306C35.6121 26.8475 36.8141 25.6455 38.2972 25.6455C39.7803 25.6455 40.9823 26.8475 40.9823 28.3306ZM19.5013 28.3306C19.5013 29.8133 18.2993 31.0157 16.8162 31.0157C15.3335 31.0157 14.1311 29.8133 14.1311 28.3306C14.1311 26.8475 15.3335 25.6455 16.8162 25.6455C18.2993 25.6455 19.5013 26.8475 19.5013 28.3306Z" fill="white"/>
</g>
<defs>
<clipPath id="clip0">
<rect width="54.9913" height="54.9913" fill="white" transform="translate(0.0610352 0.834961)"/>
</clipPath>
</defs>
</svg>
