<svg width="368" height="368" viewBox="0 0 368 368" fill="none" xmlns="http://www.w3.org/2000/svg">
<path d="M321.124 199.897C316.531 196.35 311.843 192.913 309.083 187.783C295.099 161.824 324.208 131.457 308.053 103.327C299.854 89.0559 283.684 78.612 267.904 84.5442C251.086 90.8738 235.211 97.4831 217.12 92.2501C185.472 83.0796 169.037 40.1708 134.563 40.892C106.264 41.4808 74.7702 71.2888 91.1388 102.223C103.54 125.628 95.7904 144.999 67.1084 149.033C38.4265 153.066 26.0911 186.944 34.5919 201.495C43.0927 216.045 59.3878 231.354 43.8876 237.809C28.3875 244.264 22.9631 265.247 24.5161 279.761C26.0691 294.275 29.1603 299.935 29.1603 299.935H326.666C326.666 299.935 339.215 283.794 340.761 246.678C341.438 230.589 338.104 214.831 325.945 203.828C324.407 202.459 322.773 201.171 321.124 199.897Z" fill="#F2C94C" fill-opacity="0.79"/>
<path opacity="0.7" d="M321.124 199.897C316.531 196.35 311.843 192.913 309.083 187.783C295.099 161.824 324.208 131.457 308.053 103.327C299.854 89.0559 283.684 78.612 267.904 84.5442C251.086 90.8738 235.211 97.4831 217.12 92.2501C185.472 83.0796 169.037 40.1708 134.563 40.892C106.264 41.4808 74.7702 71.2888 91.1388 102.223C103.54 125.628 95.7904 144.999 67.1084 149.033C38.4265 153.066 26.0911 186.944 34.5919 201.495C43.0927 216.045 59.3878 231.354 43.8876 237.809C28.3875 244.264 22.9631 265.247 24.5161 279.761C26.0691 294.275 29.1603 299.935 29.1603 299.935H326.666C326.666 299.935 339.215 283.794 340.761 246.678C341.438 230.589 338.104 214.831 325.945 203.828C324.407 202.459 322.773 201.171 321.124 199.897Z" fill="white"/>
<path d="M180.732 323.84C211.828 323.84 237.036 321.204 237.036 317.952C237.036 314.7 211.828 312.064 180.732 312.064C149.636 312.064 124.428 314.7 124.428 317.952C124.428 321.204 149.636 323.84 180.732 323.84Z" fill="#3B49E7"/>
<path opacity="0.5" d="M180.732 323.84C211.828 323.84 237.036 321.204 237.036 317.952C237.036 314.7 211.828 312.064 180.732 312.064C149.636 312.064 124.428 314.7 124.428 317.952C124.428 321.204 149.636 323.84 180.732 323.84Z" fill="white"/>
<path d="M307.965 269.302V260.316H297.94V242.88H283.537V172.062H269.759V214.868H257.232V199.544H240.326V239.178H233.437V251.859H217.157V247.105H222.162V244.462H201.495V247.634H204.005V261.376H193.355V235.476H155.782V253.971H128.844V240.23H118.827V255.561H97.5348V227.549H88.7691V218.04H73.107V261.376H57.4523V270.885H47.4353V299.949H327.38V269.302H307.965Z" stroke="#2E353A" stroke-miterlimit="10"/>
<path d="M79.2672 227.424H75.8816V230.809H79.2672V227.424Z" fill="#2E353A"/>
<path d="M86.3182 227.424H82.9326V230.809H86.3182V227.424Z" fill="#2E353A"/>
<path d="M79.2672 234.482H75.8816V237.868H79.2672V234.482Z" fill="#2E353A"/>
<path d="M86.3182 234.482H82.9326V237.868H86.3182V234.482Z" fill="#2E353A"/>
<path d="M93.9359 234.482H90.5503V237.868H93.9359V234.482Z" fill="#2E353A"/>
<path d="M93.9359 241.533H90.5503V244.919H93.9359V241.533Z" fill="#2E353A"/>
<path d="M93.9359 248.591H90.5503V251.977H93.9359V248.591Z" fill="#2E353A"/>
<path d="M93.9359 255.642H90.5503V259.028H93.9359V255.642Z" fill="#2E353A"/>
<path d="M93.9359 262.7H90.5503V266.086H93.9359V262.7Z" fill="#2E353A"/>
<path d="M93.9359 269.759H90.5503V273.144H93.9359V269.759Z" fill="#2E353A"/>
<path d="M79.2672 241.533H75.8816V244.919H79.2672V241.533Z" fill="#2E353A"/>
<path d="M86.3182 241.533H82.9326V244.919H86.3182V241.533Z" fill="#2E353A"/>
<path d="M79.2672 248.591H75.8816V251.977H79.2672V248.591Z" fill="#2E353A"/>
<path d="M86.3182 248.591H82.9326V251.977H86.3182V248.591Z" fill="#2E353A"/>
<path d="M79.2672 255.642H75.8816V259.028H79.2672V255.642Z" fill="#2E353A"/>
<path d="M86.3182 255.642H82.9326V259.028H86.3182V255.642Z" fill="#2E353A"/>
<path d="M79.2672 262.7H75.8816V266.086H79.2672V262.7Z" fill="#2E353A"/>
<path d="M63.745 266.653H60.3594V270.038H63.745V266.653Z" fill="#2E353A"/>
<path d="M112.564 259.028H109.178V262.413H112.564V259.028Z" fill="#2E353A"/>
<path d="M119.335 259.028H115.949V262.413H119.335V259.028Z" fill="#2E353A"/>
<path d="M275.397 176.059H272.011V179.444H275.397V176.059Z" fill="#2E353A"/>
<path d="M279.629 176.059H276.243V179.444H279.629V176.059Z" fill="#2E353A"/>
<path d="M275.397 183.117H272.011V186.502H275.397V183.117Z" fill="#2E353A"/>
<path d="M279.629 183.117H276.243V186.502H279.629V183.117Z" fill="#2E353A"/>
<path d="M275.397 190.175H272.011V193.561H275.397V190.175Z" fill="#2E353A"/>
<path d="M279.629 190.175H276.243V193.561H279.629V190.175Z" fill="#2E353A"/>
<path d="M275.397 197.226H272.011V200.611H275.397V197.226Z" fill="#2E353A"/>
<path d="M279.629 197.226H276.243V200.611H279.629V197.226Z" fill="#2E353A"/>
<path d="M275.397 204.284H272.011V207.67H275.397V204.284Z" fill="#2E353A"/>
<path d="M279.629 204.284H276.243V207.67H279.629V204.284Z" fill="#2E353A"/>
<path d="M275.397 211.335H272.011V214.721H275.397V211.335Z" fill="#2E353A"/>
<path d="M279.629 211.335H276.243V214.721H279.629V211.335Z" fill="#2E353A"/>
<path d="M275.397 218.393H272.011V221.779H275.397V218.393Z" fill="#2E353A"/>
<path d="M279.629 218.393H276.243V221.779H279.629V218.393Z" fill="#2E353A"/>
<path d="M275.397 225.451H272.011V228.837H275.397V225.451Z" fill="#2E353A"/>
<path d="M279.629 225.451H276.243V228.837H279.629V225.451Z" fill="#2E353A"/>
<path d="M275.397 232.502H272.011V235.888H275.397V232.502Z" fill="#2E353A"/>
<path d="M279.629 232.502H276.243V235.888H279.629V232.502Z" fill="#2E353A"/>
<path d="M246.612 232.502H243.226V235.888H246.612V232.502Z" fill="#2E353A"/>
<path d="M253.95 232.502H250.564V235.888H253.95V232.502Z" fill="#2E353A"/>
<path d="M261.287 232.502H257.902V235.888H261.287V232.502Z" fill="#2E353A"/>
<path d="M246.612 247.745H243.226V251.13H246.612V247.745Z" fill="#2E353A"/>
<path d="M253.95 247.745H250.564V251.13H253.95V247.745Z" fill="#2E353A"/>
<path d="M261.287 247.745H257.902V251.13H261.287V247.745Z" fill="#2E353A"/>
<path d="M246.612 262.98H243.226V266.366H246.612V262.98Z" fill="#2E353A"/>
<path d="M253.95 262.98H250.564V266.366H253.95V262.98Z" fill="#2E353A"/>
<path d="M261.287 262.98H257.902V266.366H261.287V262.98Z" fill="#2E353A"/>
<path d="M275.397 239.561H272.011V242.946H275.397V239.561Z" fill="#2E353A"/>
<path d="M279.629 239.561H276.243V242.946H279.629V239.561Z" fill="#2E353A"/>
<path d="M275.397 246.611H272.011V249.997H275.397V246.611Z" fill="#2E353A"/>
<path d="M279.629 246.611H276.243V249.997H279.629V246.611Z" fill="#2E353A"/>
<path d="M275.397 253.67H272.011V257.055H275.397V253.67Z" fill="#2E353A"/>
<path d="M279.629 253.67H276.243V257.055H279.629V253.67Z" fill="#2E353A"/>
<path d="M286.687 246.611H283.301V249.997H286.687V246.611Z" fill="#2E353A"/>
<path d="M294.591 246.611H291.206V249.997H294.591V246.611Z" fill="#2E353A"/>
<path d="M286.687 253.39H283.301V256.776H286.687V253.39Z" fill="#2E353A"/>
<path d="M294.591 253.39H291.206V256.776H294.591V253.39Z" fill="#2E353A"/>
<path d="M286.687 260.161H283.301V263.547H286.687V260.161Z" fill="#2E353A"/>
<path d="M294.591 260.161H291.206V263.547H294.591V260.161Z" fill="#2E353A"/>
<path d="M286.687 266.932H283.301V270.318H286.687V266.932Z" fill="#2E353A"/>
<path d="M294.591 266.932H291.206V270.318H294.591V266.932Z" fill="#2E353A"/>
<path d="M275.397 260.728H272.011V264.114H275.397V260.728Z" fill="#2E353A"/>
<path d="M279.629 260.728H276.243V264.114H279.629V260.728Z" fill="#2E353A"/>
<path d="M275.397 267.779H272.011V271.164H275.397V267.779Z" fill="#2E353A"/>
<path d="M279.629 267.779H276.243V271.164H279.629V267.779Z" fill="#2E353A"/>
<path d="M86.3182 262.7H82.9326V266.086H86.3182V262.7Z" fill="#2E353A"/>
<path d="M79.2672 269.759H75.8816V273.144H79.2672V269.759Z" fill="#2E353A"/>
<path d="M86.3182 269.759H82.9326V273.144H86.3182V269.759Z" fill="#2E353A"/>
<path d="M79.2672 276.81H75.8816V280.195H79.2672V276.81Z" fill="#2E353A"/>
<path d="M86.3182 276.81H82.9326V280.195H86.3182V276.81Z" fill="#2E353A"/>
<path d="M79.2672 283.868H75.8816V287.253H79.2672V283.868Z" fill="#2E353A"/>
<path d="M86.3182 283.868H82.9326V287.253H86.3182V283.868Z" fill="#2E353A"/>
<path d="M264.673 285.988V299.949H236.455V272.188H264.673V283.5" stroke="#2E353A" stroke-miterlimit="10"/>
<path d="M316.605 295.732V299.949H288.38V285.273H294.209" stroke="#2E353A" stroke-miterlimit="10"/>
<path d="M297.646 285.273H316.605V293.443" stroke="#2E353A" stroke-miterlimit="10"/>
<path d="M108.604 285.273H128.653V299.949H100.427V285.273H105.925" stroke="#2E353A" stroke-miterlimit="10"/>
<path d="M64.4516 285.273H67.1306V299.949H56.6868V285.273H62.3466" stroke="#2E353A" stroke-miterlimit="10"/>
<path d="M252.816 272.188H248.304V299.949H252.816V272.188Z" stroke="#2E353A" stroke-miterlimit="10"/>
<path d="M217.746 275.963H213.315V268.625H228.27V275.963H221.764" stroke="#2E353A" stroke-miterlimit="10"/>
<path d="M138.53 263.547H121.315V269.759H138.53V263.547Z" stroke="#2E353A" stroke-miterlimit="10"/>
<path d="M131.192 263.547H129.499V299.949H131.192V263.547Z" stroke="#2E353A" stroke-miterlimit="10"/>
<path d="M184 42.4158C158.819 42.4158 134.67 52.4188 116.865 70.2242C99.0591 88.0297 89.0562 112.179 89.0562 137.36C89.0562 184.721 176.64 296.336 176.64 296.336H184C184 296.336 278.944 189.792 278.944 137.36C278.944 112.179 268.941 88.0297 251.136 70.2242C233.33 52.4188 209.181 42.4158 184 42.4158ZM184 183.728C174.829 183.728 165.865 181.008 158.239 175.913C150.614 170.818 144.671 163.577 141.162 155.104C137.652 146.631 136.734 137.308 138.523 128.314C140.312 119.319 144.728 111.057 151.213 104.573C157.698 98.088 165.96 93.6718 174.954 91.8827C183.949 90.0936 193.272 91.0118 201.744 94.5213C210.217 98.0308 217.459 103.974 222.554 111.599C227.649 119.224 230.368 128.189 230.368 137.36C230.368 143.449 229.169 149.478 226.839 155.104C224.508 160.73 221.093 165.841 216.787 170.147C212.482 174.453 207.37 177.868 201.744 180.198C196.119 182.528 190.089 183.728 184 183.728Z" fill="#2E353A" stroke="#2E353A" stroke-linecap="round" stroke-linejoin="round"/>
<path d="M176.64 42.4158C151.459 42.4158 127.31 52.4188 109.504 70.2242C91.699 88.0297 81.696 112.179 81.696 137.36C81.696 189.792 176.64 296.336 176.64 296.336C176.64 296.336 271.584 189.792 271.584 137.36C271.584 112.179 261.581 88.0297 243.776 70.2242C225.97 52.4188 201.821 42.4158 176.64 42.4158ZM176.64 183.728C167.469 183.728 158.505 181.008 150.879 175.913C143.254 170.818 137.311 163.577 133.802 155.104C130.292 146.631 129.374 137.308 131.163 128.314C132.952 119.319 137.368 111.057 143.853 104.573C150.338 98.088 158.6 93.6718 167.594 91.8827C176.589 90.0936 185.912 91.0118 194.384 94.5213C202.857 98.0308 210.099 103.974 215.194 111.599C220.289 119.224 223.008 128.189 223.008 137.36C223.008 149.657 218.123 161.451 209.427 170.147C200.731 178.843 188.938 183.728 176.64 183.728Z" fill="#3B49E7" stroke="#2E353A" stroke-linecap="round" stroke-linejoin="round"/>
</svg>
