<svg width="500" height="500" viewBox="0 0 500 500" fill="none" xmlns="http://www.w3.org/2000/svg">
<path d="M500 382.4H0V382.65H500V382.4Z" fill="#EBEBEB"/>
<path d="M137.66 389.21H104.54V389.46H137.66V389.21Z" fill="#EBEBEB"/>
<path d="M211.89 398.37H171.14V398.62H211.89V398.37Z" fill="#EBEBEB"/>
<path d="M103.54 395.24H52.46V395.49H103.54V395.24Z" fill="#EBEBEB"/>
<path d="M449.9 390.89H356.76V391.14H449.9V390.89Z" fill="#EBEBEB"/>
<path d="M347.86 390.89H341.53V391.14H347.86V390.89Z" fill="#EBEBEB"/>
<path d="M319.44 395.11H277.21V395.36H319.44V395.11Z" fill="#EBEBEB"/>
<path d="M237 337.8H43.91C42.3973 337.797 40.9475 337.195 39.8788 336.124C38.8102 335.053 38.21 333.603 38.21 332.09V60.66C38.2231 59.156 38.8292 57.718 39.8964 56.6582C40.9637 55.5985 42.4059 55.0026 43.91 55H237C238.514 55 239.967 55.6016 241.038 56.6724C242.108 57.7433 242.71 59.1956 242.71 60.71V332.09C242.71 333.604 242.108 335.057 241.038 336.128C239.967 337.198 238.514 337.8 237 337.8ZM43.91 55.2C42.4636 55.2026 41.0774 55.7791 40.0556 56.8027C39.0338 57.8264 38.46 59.2136 38.46 60.66V332.09C38.46 333.536 39.0338 334.924 40.0556 335.947C41.0774 336.971 42.4636 337.547 43.91 337.55H237C238.447 337.547 239.834 336.971 240.858 335.948C241.881 334.924 242.457 333.537 242.46 332.09V60.66C242.457 59.2127 241.881 57.8255 240.858 56.8021C239.834 55.7787 238.447 55.2026 237 55.2H43.91Z" fill="#EBEBEB"/>
<path d="M453.31 337.8H260.21C258.696 337.797 257.246 337.195 256.175 336.125C255.105 335.054 254.503 333.604 254.5 332.09V60.66C254.516 59.1551 255.124 57.7171 256.193 56.6576C257.262 55.5981 258.705 55.0025 260.21 55H453.31C454.812 55.0052 456.252 55.6022 457.317 56.6617C458.382 57.7212 458.987 59.1578 459 60.66V332.09C459 333.601 458.401 335.05 457.335 336.121C456.268 337.191 454.821 337.795 453.31 337.8ZM260.21 55.2C258.763 55.2026 257.375 55.7787 256.352 56.8021C255.329 57.8255 254.753 59.2127 254.75 60.66V332.09C254.753 333.537 255.329 334.924 256.352 335.948C257.375 336.971 258.763 337.547 260.21 337.55H453.31C454.757 337.547 456.145 336.971 457.168 335.948C458.191 334.924 458.767 333.537 458.77 332.09V60.66C458.767 59.2127 458.191 57.8255 457.168 56.8021C456.145 55.7787 454.757 55.2026 453.31 55.2H260.21Z" fill="#EBEBEB"/>
<path d="M192.75 382.4H176.67V141H185.67L192.75 382.4Z" fill="#E6E6E6"/>
<path d="M184.21 149.33H169.12C166.913 149.322 164.799 148.442 163.239 146.881C161.678 145.321 160.798 143.207 160.79 141C160.798 138.793 161.678 136.679 163.239 135.118C164.799 133.558 166.913 132.678 169.12 132.67H184.21C186.417 132.678 188.531 133.558 190.092 135.118C191.652 136.679 192.532 138.793 192.54 141C192.532 143.207 191.652 145.321 190.092 146.881C188.531 148.442 186.417 149.322 184.21 149.33Z" fill="#E6E6E6"/>
<path d="M167.57 150.06C171.999 150.06 175.59 146.057 175.59 141.12C175.59 136.183 171.999 132.18 167.57 132.18C163.14 132.18 159.55 136.183 159.55 141.12C159.55 146.057 163.14 150.06 167.57 150.06Z" fill="#F5F5F5"/>
<path d="M167.57 141.12L99.7998 72.05L139.57 132.24L167.57 141.12Z" fill="#F5F5F5"/>
<path d="M167.57 141.12L141.63 234.34L173.87 169.8L167.57 141.12Z" fill="#F5F5F5"/>
<path d="M167.57 141.12L261.27 116.97L189.25 121.32L167.57 141.12Z" fill="#F5F5F5"/>
<path d="M333.37 382.4H319.83V158.9H327.41L333.37 382.4Z" fill="#E6E6E6"/>
<path d="M326.18 165.91H313.48C311.623 165.91 309.843 165.172 308.53 163.86C307.217 162.547 306.48 160.766 306.48 158.91C306.48 157.053 307.217 155.273 308.53 153.96C309.843 152.647 311.623 151.91 313.48 151.91H326.18C328.036 151.91 329.817 152.647 331.13 153.96C332.442 155.273 333.18 157.053 333.18 158.91C333.18 160.766 332.442 162.547 331.13 163.86C329.817 165.172 328.036 165.91 326.18 165.91Z" fill="#E6E6E6"/>
<path d="M312.17 166.52C315.898 166.52 318.92 163.153 318.92 159C318.92 154.847 315.898 151.48 312.17 151.48C308.442 151.48 305.42 154.847 305.42 159C305.42 163.153 308.442 166.52 312.17 166.52Z" fill="#F5F5F5"/>
<path d="M312.17 159L346.1 84.96L310.74 134.32L312.17 159Z" fill="#F5F5F5"/>
<path d="M312.17 159L231.09 166.63L291.52 172.58L312.17 159Z" fill="#F5F5F5"/>
<path d="M312.17 159L359.33 225.4L334.26 170.1L312.17 159Z" fill="#F5F5F5"/>
<path d="M273.06 341C273.06 341 224.38 316.82 275.44 287.89C326.5 258.96 337.06 310 337.06 310C337.06 310 345.23 262.68 387.45 286.17C420.02 304.29 413.45 326.77 408.78 336.1C413.78 329.25 426.32 318.19 449.78 332.46C481.61 351.87 445.4 382.39 445.4 382.39H253.15C228.64 343.64 273.06 341 273.06 341Z" fill="#E6E6E6"/>
<path d="M267 328.33C267 328.33 327.33 296.78 264 259C200.67 221.22 187.64 287.89 187.64 287.89C187.64 287.89 177.51 226.11 125.19 256.78C84.8198 280.44 92.9398 309.78 98.7498 321.96C92.5598 313 76.9998 298.58 47.9998 317.22C8.52978 342.56 53.3998 382.4 53.3998 382.4H291.64C322 331.8 267 328.33 267 328.33Z" fill="#F0F0F0"/>
<path d="M121.61 148.15C118.89 142.67 113.61 138.77 108.19 138.77C106.624 138.745 105.074 139.096 103.67 139.791C102.266 140.487 101.049 141.508 100.12 142.77C98.4647 141.351 96.3703 140.545 94.1902 140.49C90.5002 140.49 87.7802 143.13 87.1902 146.85C85.4885 146.012 83.6343 145.529 81.7402 145.43C78.0502 145.26 75.1302 146.78 73.6302 149.24C72.9387 148.823 72.1564 148.579 71.3502 148.53C70.8906 148.453 70.4191 148.494 69.9791 148.647C69.5391 148.8 69.1446 149.061 68.832 149.407C68.5193 149.752 68.2985 150.171 68.1899 150.624C68.0813 151.077 68.0883 151.55 68.2102 152L68.3002 152.36H128.15C128.29 150.41 124.25 148.25 121.61 148.15Z" fill="#E6E6E6"/>
<path d="M434 129.71C431.28 124.23 426 120.33 420.59 120.33C419.022 120.303 417.47 120.652 416.064 121.348C414.658 122.044 413.44 123.066 412.51 124.33C410.851 122.918 408.758 122.117 406.58 122.06C402.89 122.06 400.17 124.69 399.53 128.42C397.829 127.581 395.974 127.098 394.08 127C390.39 126.83 387.48 128.34 385.97 130.81C385.279 130.393 384.496 130.149 383.69 130.1C383.24 130.034 382.781 130.08 382.353 130.233C381.925 130.387 381.541 130.644 381.235 130.981C380.93 131.318 380.712 131.725 380.602 132.166C380.491 132.607 380.49 133.069 380.6 133.51L380.69 133.88H440.54C440.72 132 436.68 129.8 434 129.71Z" fill="#F5F5F5"/>
<path d="M287.16 206.46C286.874 206.429 286.587 206.412 286.3 206.41C283.64 203.18 280.3 201.11 277.18 201.11C276.129 201.098 275.093 201.359 274.172 201.867C273.252 202.376 272.48 203.114 271.93 204.01C267.08 197.73 260.81 193.65 254.93 193.65C250.2 193.65 246.6 196.31 244.59 200.65C241.85 198.18 238.78 196.71 235.85 196.71C230.71 196.71 227.51 201.27 227.45 207.71C225.041 206.299 222.343 205.455 219.56 205.24C214.4 204.95 210.68 207.58 209.14 211.85C208.161 211.147 207.011 210.722 205.81 210.62C202.99 210.46 201.42 212.82 202.12 215.97H300C298.803 213.454 297.006 211.271 294.767 209.612C292.528 207.954 289.916 206.871 287.16 206.46Z" fill="#F5F5F5"/>
<path d="M314.63 75.7799H314.2C313.674 75.0377 312.994 74.4171 312.208 73.9599C311.421 73.5028 310.546 73.2197 309.64 73.1299C309.113 73.1153 308.592 73.2398 308.128 73.4909C307.665 73.7419 307.276 74.1106 307 74.5599C304.57 71.4199 301.44 69.3799 298.5 69.3799C297.39 69.3786 296.304 69.7105 295.384 70.3327C294.464 70.9548 293.752 71.8387 293.34 72.8699C292.175 71.6935 290.622 70.9824 288.97 70.8699C286.39 70.8699 284.8 73.1499 284.77 76.3699C283.568 75.6645 282.22 75.2438 280.83 75.1399C279.716 75.0156 278.593 75.2747 277.645 75.8746C276.698 76.4746 275.984 77.3794 275.62 78.4399C275.129 78.0899 274.552 77.8791 273.95 77.8299C272.54 77.7499 271.76 78.9299 272.11 80.4999H321.06C320.456 79.2472 319.554 78.1618 318.433 77.3388C317.312 76.5159 316.006 75.9806 314.63 75.7799Z" fill="#E6E6E6"/>
<path d="M250 427.56C357.082 427.56 443.89 422.492 443.89 416.24C443.89 409.988 357.082 404.92 250 404.92C142.917 404.92 56.1099 409.988 56.1099 416.24C56.1099 422.492 142.917 427.56 250 427.56Z" fill="#F5F5F5"/>
<path d="M269 336.37H238.2C224.99 336.37 214.29 353.7 214.29 375.08C214.29 396.46 224.99 413.79 238.2 413.79H269C282.21 413.79 292.92 396.46 292.92 375.08C292.92 353.7 282.19 336.37 269 336.37Z" fill="#407BFF"/>
<path opacity="0.2" d="M269 336.37H238.2C224.99 336.37 214.29 353.7 214.29 375.08C214.29 396.46 224.99 413.79 238.2 413.79H269C282.21 413.79 292.92 396.46 292.92 375.08C292.92 353.7 282.19 336.37 269 336.37Z" fill="black"/>
<path d="M129.94 336.37H99.14C85.93 336.37 75.23 353.7 75.23 375.08C75.23 396.46 85.93 413.79 99.14 413.79H129.94C143.15 413.79 153.86 396.46 153.86 375.08C153.86 353.7 143.15 336.37 129.94 336.37Z" fill="#407BFF"/>
<path opacity="0.2" d="M129.94 336.37H99.14C85.93 336.37 75.23 353.7 75.23 375.08C75.23 396.46 85.93 413.79 99.14 413.79H129.94C143.15 413.79 153.86 396.46 153.86 375.08C153.86 353.7 143.15 336.37 129.94 336.37Z" fill="black"/>
<path d="M423.91 307L430.91 313C432.539 314.399 433.752 316.22 434.415 318.262C435.078 320.305 435.167 322.491 434.67 324.58L433.07 331.33L423.91 307Z" fill="#407BFF"/>
<path d="M436.64 346.27C435.429 333.065 431.973 320.163 426.42 308.12L424 302.93H365.71L395.94 389.93C406.575 387.274 416.428 382.133 424.69 374.93L425.39 374.33C429.351 370.876 432.436 366.532 434.392 361.654C436.348 356.776 437.118 351.504 436.64 346.27Z" fill="#407BFF"/>
<path opacity="0.5" d="M436.64 346.27C435.429 333.065 431.973 320.163 426.42 308.12L424 302.93H365.71L395.94 389.93C406.575 387.274 416.428 382.133 424.69 374.93L425.39 374.33C429.351 370.876 432.436 366.532 434.392 361.654C436.348 356.776 437.118 351.504 436.64 346.27Z" fill="white"/>
<path d="M359.24 413.79C346.03 413.79 335.32 396.46 335.32 375.08C335.32 353.7 346.03 336.37 359.24 336.37H389.93V413.79H359.24Z" fill="#407BFF"/>
<path d="M390.04 413.79C403.251 413.79 413.96 396.459 413.96 375.08C413.96 353.701 403.251 336.37 390.04 336.37C376.829 336.37 366.12 353.701 366.12 375.08C366.12 396.459 376.829 413.79 390.04 413.79Z" fill="#407BFF"/>
<path opacity="0.2" d="M390.04 399.56C399.307 399.56 406.82 388.6 406.82 375.08C406.82 361.56 399.307 350.6 390.04 350.6C380.772 350.6 373.26 361.56 373.26 375.08C373.26 388.6 380.772 399.56 390.04 399.56Z" fill="black"/>
<path d="M184.64 389.93L127.12 297.62C127.12 297.62 172.63 251.62 272.03 251.62C358.09 251.62 409.63 280.04 424.03 302.94L389.93 336.38C356.93 336.38 357.11 371.38 352.58 386.13C352.236 387.241 351.544 388.211 350.606 388.897C349.667 389.583 348.533 389.949 347.37 389.94H184.64" fill="#407BFF"/>
<path opacity="0.5" d="M184.64 389.93L127.12 297.62C127.12 297.62 172.63 251.62 272.03 251.62C358.09 251.62 409.63 280.04 424.03 302.94L389.93 336.38C356.93 336.38 357.11 371.38 352.58 386.13C352.236 387.241 351.544 388.211 350.606 388.897C349.667 389.583 348.533 389.949 347.37 389.94H184.64" fill="white"/>
<path d="M220.2 413.79C206.99 413.79 196.28 396.46 196.28 375.08C196.28 353.7 207 336.37 220.2 336.37H250.89V413.79H220.2Z" fill="#407BFF"/>
<path d="M251 413.79C264.211 413.79 274.92 396.459 274.92 375.08C274.92 353.701 264.211 336.37 251 336.37C237.789 336.37 227.08 353.701 227.08 375.08C227.08 396.459 237.789 413.79 251 413.79Z" fill="#407BFF"/>
<path opacity="0.2" d="M251 399.56C260.267 399.56 267.78 388.6 267.78 375.08C267.78 361.56 260.267 350.6 251 350.6C241.732 350.6 234.22 361.56 234.22 375.08C234.22 388.6 241.732 399.56 251 399.56Z" fill="black"/>
<path d="M208.89 382.31C211.82 365.01 229.07 336.37 250.89 336.37L272 297.62H127.12C117.88 297.62 74.6799 313.23 58.9499 328.96C47.9499 339.96 46.7999 351.05 45.4999 379.25C45.2399 385 50.5299 390 56.8899 390C110.35 390 175.05 390.21 198.6 390.28C203.8 390.25 208.11 386.94 208.89 382.31Z" fill="#407BFF"/>
<path opacity="0.5" d="M208.89 382.31C211.82 365.01 229.07 336.37 250.89 336.37L272 297.62H127.12C117.88 297.62 74.6799 313.23 58.9499 328.96C47.9499 339.96 46.7999 351.05 45.4999 379.25C45.2399 385 50.5299 390 56.8899 390C110.35 390 175.05 390.21 198.6 390.28C203.8 390.25 208.11 386.94 208.89 382.31Z" fill="white"/>
<path opacity="0.3" d="M272 251.61C173.21 251.61 128.13 296.91 127.11 297.61H227.05C227.05 297.61 270.05 260.46 298.52 252.55C290.1 251.937 281.26 251.623 272 251.61Z" fill="#407BFF"/>
<path opacity="0.7" d="M148.42 337.16C162.13 331.96 203.54 317.37 214.83 321.16C226.12 324.95 198.78 338.49 191.89 340.29C185 342.09 180.49 338.48 170.18 343.47C159.87 348.46 131.81 343.44 148.42 337.16Z" fill="#407BFF"/>
<path opacity="0.2" d="M318.26 390.45C318.153 390.45 318.049 390.419 317.96 390.36C317.845 390.281 317.767 390.16 317.74 390.024C317.714 389.887 317.743 389.746 317.82 389.63C318.03 389.33 338.29 358.82 338.29 297.63C338.29 297.49 338.346 297.355 338.445 297.255C338.544 297.156 338.679 297.1 338.82 297.1C338.889 297.1 338.957 297.114 339.021 297.141C339.085 297.167 339.143 297.207 339.191 297.256C339.24 297.305 339.278 297.364 339.303 297.428C339.329 297.492 339.341 297.561 339.34 297.63C339.34 359.19 318.9 389.93 318.69 390.23C318.642 390.299 318.578 390.356 318.503 390.394C318.428 390.433 318.344 390.452 318.26 390.45Z" fill="#407BFF"/>
<path opacity="0.2" d="M98.7398 343.22H98.6298L71.0998 336.88C71.0253 336.874 70.953 336.851 70.8879 336.814C70.8228 336.777 70.7665 336.727 70.7227 336.666C70.6789 336.605 70.6488 336.536 70.6343 336.463C70.6199 336.389 70.6214 336.313 70.6389 336.241C70.6563 336.168 70.6893 336.1 70.7355 336.041C70.7817 335.982 70.8401 335.934 70.9067 335.9C70.9732 335.865 71.0463 335.846 71.1211 335.843C71.1959 335.839 71.2705 335.852 71.3398 335.88L98.7698 342.18L144.14 337C144.214 336.971 144.293 336.96 144.372 336.967C144.451 336.973 144.528 336.998 144.596 337.039C144.664 337.079 144.722 337.135 144.765 337.202C144.808 337.268 144.835 337.344 144.845 337.423C144.854 337.501 144.846 337.581 144.819 337.656C144.793 337.731 144.75 337.799 144.694 337.855C144.637 337.911 144.569 337.953 144.494 337.978C144.418 338.003 144.338 338.011 144.26 338L98.7998 343.22H98.7398Z" fill="#407BFF"/>
<path opacity="0.2" d="M389.93 336.9C389.859 336.901 389.789 336.888 389.723 336.86C389.658 336.833 389.599 336.792 389.55 336.74C389.501 336.691 389.462 336.632 389.435 336.568C389.408 336.504 389.395 336.435 389.395 336.365C389.395 336.295 389.408 336.226 389.435 336.162C389.462 336.098 389.501 336.039 389.55 335.99C399.16 326.56 404.29 304.54 404.29 292.27C404.289 292.201 404.301 292.132 404.327 292.068C404.352 292.004 404.39 291.945 404.439 291.896C404.487 291.846 404.545 291.807 404.609 291.781C404.672 291.754 404.741 291.74 404.81 291.74C404.951 291.74 405.085 291.796 405.185 291.895C405.284 291.995 405.34 292.129 405.34 292.27C405.34 304.73 400.11 327.12 390.29 336.75C390.192 336.842 390.064 336.896 389.93 336.9Z" fill="#407BFF"/>
<path d="M312.46 308.14H326.17C326.681 308.137 327.17 307.933 327.532 307.572C327.893 307.21 328.097 306.721 328.1 306.21C328.097 305.699 327.893 305.21 327.532 304.848C327.17 304.487 326.681 304.283 326.17 304.28H312.46C311.949 304.283 311.459 304.487 311.098 304.848C310.737 305.21 310.532 305.699 310.53 306.21C310.532 306.721 310.737 307.21 311.098 307.572C311.459 307.933 311.949 308.137 312.46 308.14Z" fill="#407BFF"/>
<path d="M372.61 308.14H386.31C386.822 308.14 387.314 307.937 387.678 307.575C388.041 307.214 388.247 306.723 388.25 306.21C388.247 305.697 388.041 305.206 387.678 304.845C387.314 304.483 386.822 304.28 386.31 304.28H372.61C372.099 304.283 371.609 304.487 371.248 304.848C370.887 305.21 370.682 305.699 370.68 306.21C370.682 306.721 370.887 307.21 371.248 307.572C371.609 307.933 372.099 308.137 372.61 308.14Z" fill="#407BFF"/>
<path opacity="0.7" d="M70.24 337.67C67.42 335.95 62.79 333.23 57.55 330.44C54.683 333.471 52.3863 336.994 50.77 340.84C52.8433 341.319 54.7752 342.278 56.41 343.64C63.09 348.78 81 344.23 70.24 337.67Z" fill="#407BFF"/>
<path opacity="0.3" d="M244.76 297.62H384.44C391.58 297.622 398.601 295.779 404.82 292.27C404.82 292.27 382.22 271.73 336.71 262.88C318.01 259.24 300.28 257.83 294.83 258.18C281.83 265 261.92 279.44 244.76 297.62Z" fill="#407BFF"/>
<path d="M161 383.52H61.6598C61.125 383.522 60.6012 383.369 60.1515 383.08C59.7017 382.79 59.3454 382.377 59.1255 381.889C58.9055 381.402 58.8314 380.861 58.912 380.333C58.9927 379.804 59.2246 379.31 59.5798 378.91L62.1498 376.01C62.4116 375.717 62.7321 375.483 63.0905 375.323C63.449 375.163 63.8372 375.08 64.2298 375.08H158.41C158.801 375.08 159.188 375.163 159.544 375.323C159.901 375.484 160.22 375.718 160.48 376.01L163.05 378.91C163.403 379.308 163.635 379.799 163.716 380.325C163.798 380.851 163.727 381.389 163.51 381.876C163.294 382.362 162.942 382.776 162.497 383.067C162.052 383.359 161.532 383.516 161 383.52Z" fill="#407BFF"/>
<path d="M421.5 337.32L415.25 338.52V321.57L421.5 322.77C422.35 322.94 422.99 324.08 422.99 325.44V334.65C423 336 422.35 337.15 421.5 337.32Z" fill="#407BFF"/>
<path d="M316.09 421.45C311.09 421.45 308.38 420.21 308.38 417.97C308.38 416.06 310.51 414.65 314.9 413.67C320.794 412.568 326.785 412.079 332.78 412.21H413C417.88 412.21 421.54 410.79 424.21 407.86C431.44 399.95 429.82 382.13 428.64 369.13C428.24 364.71 427.86 360.53 427.86 357.28C427.93 352.949 428.331 348.63 429.06 344.36C429.81 339.31 430.4 335.36 428.79 333.45C427.73 332.22 425.52 331.63 422.02 331.63V328.46C426.56 328.46 429.47 329.39 431.18 331.38C433.75 334.38 433.06 338.98 432.18 344.82C431.469 348.937 431.074 353.103 431 357.28C431 360.39 431.37 364.49 431.77 368.84C433.07 383.19 434.69 401.05 426.53 410C423.27 413.56 418.71 415.37 412.98 415.37H332.78C319.83 415.37 314.07 416.89 312.16 417.84C313.442 418.176 314.765 418.328 316.09 418.29V421.45Z" fill="#407BFF"/>
<path d="M422 324.55V335.55C423.459 335.55 424.858 334.971 425.889 333.939C426.921 332.908 427.5 331.509 427.5 330.05C427.5 328.591 426.921 327.192 425.889 326.161C424.858 325.13 423.459 324.55 422 324.55Z" fill="#407BFF"/>
<path d="M374.8 165.89H332.78V418.5H374.8V165.89Z" fill="#263238"/>
<path d="M386.34 162.78H336.38V165.89H386.34V162.78Z" fill="#263238"/>
<path opacity="0.4" d="M386.34 162.78H374.81V165.89H386.34V162.78Z" fill="black"/>
<path d="M360.72 188.27H353.65L359.83 178.49H352.06L346.87 192.32H353.32L349.39 204.81L360.72 188.27Z" fill="white"/>
<path opacity="0.5" d="M360.038 331.75C363.487 328.301 363.487 322.71 360.038 319.262C356.59 315.814 350.999 315.814 347.551 319.262C344.103 322.71 344.103 328.301 347.551 331.75C350.999 335.198 356.59 335.198 360.038 331.75Z" fill="#407BFF"/>
<path d="M316.09 421.45C315.671 421.45 315.269 421.284 314.973 420.987C314.676 420.691 314.51 420.289 314.51 419.87C314.51 419.451 314.676 419.049 314.973 418.753C315.269 418.456 315.671 418.29 316.09 418.29C321.18 418.29 324.69 417.03 326.83 414.44C331.75 408.49 329.3 395.69 326.71 382.13C324.99 373.13 323.21 363.82 323.21 355.13C323.21 334.99 334.07 323.89 353.79 323.89C354.008 323.873 354.228 323.901 354.436 323.972C354.643 324.044 354.833 324.158 354.995 324.307C355.156 324.456 355.284 324.637 355.372 324.838C355.46 325.039 355.506 325.256 355.506 325.475C355.506 325.694 355.46 325.911 355.372 326.112C355.284 326.313 355.156 326.494 354.995 326.643C354.833 326.792 354.643 326.906 354.436 326.978C354.228 327.049 354.008 327.077 353.79 327.06C341.28 327.06 326.37 331.93 326.37 355.13C326.37 363.48 328.12 372.64 329.81 381.5C332.55 395.81 335.13 409.32 329.27 416.41C326.49 419.81 322.18 421.45 316.09 421.45Z" fill="#407BFF"/>
<path opacity="0.5" d="M369.57 246.01H338.03V309.75H369.57V246.01Z" fill="#407BFF"/>
<path opacity="0.5" d="M338.02 246.01V309.75L349.32 254.88L338.02 246.01Z" fill="#407BFF"/>
<path d="M363.58 267.5L364.22 264.39H355.61L354.97 267.5H351.64L345.54 297.12H360.89L366.99 267.5H363.58Z" fill="#407BFF"/>
<path opacity="0.4" d="M362.78 278L359.64 293.26C359.533 293.783 359.249 294.253 358.835 294.591C358.421 294.928 357.904 295.112 357.37 295.11H349.71C349.502 295.112 349.296 295.067 349.108 294.978C348.919 294.89 348.753 294.76 348.622 294.599C348.49 294.437 348.397 294.249 348.348 294.046C348.299 293.844 348.296 293.634 348.34 293.43L351.48 278.17C351.586 277.647 351.87 277.177 352.284 276.839C352.698 276.502 353.216 276.319 353.75 276.32H361.41C361.618 276.319 361.823 276.364 362.012 276.452C362.2 276.541 362.366 276.67 362.498 276.832C362.629 276.993 362.723 277.182 362.771 277.384C362.82 277.586 362.823 277.797 362.78 278Z" fill="white"/>
<path opacity="0.4" d="M338.02 246.01L369.56 246V254.88H349.32L338.02 246.01Z" fill="#263238"/>
<path d="M374.8 418.5H389.92L389.92 165.89H374.8L374.8 418.5Z" fill="#263238"/>
<path opacity="0.4" d="M374.8 418.5H389.92L389.92 165.89H374.8L374.8 418.5Z" fill="black"/>
</svg>
