<svg width="17" height="17" viewBox="0 0 17 17" fill="none" xmlns="http://www.w3.org/2000/svg">
<g clip-path="url(#clip0)">
<path d="M13.4782 2.22756H11.9402V1.53953C11.9402 1.31692 11.6974 1.21575 11.4748 1.21575H10.2809C9.99758 0.406286 9.28929 0.00155442 8.47983 0.00155442C7.67928 -0.0285419 6.95112 0.462334 6.67878 1.21575H5.50506C5.28245 1.21575 5.05985 1.31692 5.05985 1.53953V2.22756H3.52184C2.61043 2.23728 1.8648 2.95626 1.82196 3.8667V15.4622C1.82196 16.3526 2.63142 17.0002 3.52184 17.0002H13.4782C14.3686 17.0002 15.1781 16.3526 15.1781 15.4622V3.86674C15.1353 2.95626 14.3896 2.23728 13.4782 2.22756ZM5.86928 2.02521H6.9823C7.17659 2.00151 7.33265 1.8537 7.36681 1.66096C7.48665 1.13906 7.94453 0.76442 8.47983 0.750321C9.01018 0.766396 9.46116 1.14219 9.57259 1.66096C9.60889 1.86036 9.77525 2.01007 9.97732 2.02521H11.1308V3.64414H5.86928V2.02521ZM14.3686 15.4623C14.3686 15.9075 13.9234 16.1908 13.4782 16.1908H3.52184C3.07663 16.1908 2.63142 15.9075 2.63142 15.4623V3.86674C2.67271 3.40333 3.05665 3.04554 3.52184 3.03706H5.05981V4.06913C5.08119 4.29588 5.27757 4.46549 5.50502 4.45364H11.4748C11.7064 4.4663 11.909 4.29901 11.9402 4.06913V3.03702H13.4782C13.9433 3.04554 14.3273 3.40329 14.3686 3.8667V15.4623H14.3686Z" fill="white"/>
<path d="M6.9418 9.04708C6.79 8.88707 6.53799 8.87804 6.37516 9.02686L5.08001 10.2613L4.53363 9.69464C4.38183 9.53463 4.12983 9.52564 3.96699 9.67442C3.81024 9.83865 3.81024 10.097 3.96699 10.2613L4.79667 11.1112C4.86849 11.1916 4.97222 11.2361 5.07997 11.2327C5.18672 11.2311 5.28856 11.1875 5.36327 11.1112L6.94172 9.61372C7.0982 9.47017 7.10866 9.22692 6.96507 9.07047C6.95772 9.0623 6.94993 9.05452 6.9418 9.04708Z" fill="white"/>
<path d="M12.7497 9.91699H8.09534C7.87181 9.91699 7.69061 10.0982 7.69061 10.3217C7.69061 10.5453 7.87181 10.7265 8.09534 10.7265H12.7497C12.9733 10.7265 13.1545 10.5453 13.1545 10.3217C13.1545 10.0982 12.9733 9.91699 12.7497 9.91699Z" fill="white"/>
<path d="M6.9418 5.80928C6.79 5.64927 6.53799 5.64025 6.37516 5.78907L5.08001 7.02348L4.53363 6.45684C4.38183 6.29683 4.12983 6.2878 3.96699 6.43662C3.81024 6.60085 3.81024 6.85925 3.96699 7.02348L4.79667 7.87342C4.86849 7.95383 4.97222 7.9983 5.07997 7.99485C5.18672 7.99334 5.28856 7.94969 5.36327 7.87342L6.94172 6.37592C7.0982 6.23238 7.10866 5.98913 6.96507 5.83268C6.95772 5.82451 6.94993 5.81672 6.9418 5.80928Z" fill="white"/>
<path d="M12.7497 6.6792H8.09534C7.87181 6.6792 7.69061 6.8604 7.69061 7.08393C7.69061 7.30746 7.87181 7.48866 8.09534 7.48866H12.7497C12.9733 7.48866 13.1545 7.30746 13.1545 7.08393C13.1545 6.8604 12.9733 6.6792 12.7497 6.6792Z" fill="white"/>
<path d="M6.9418 12.2849C6.79 12.1248 6.53799 12.1159 6.37516 12.2646L5.08001 13.499L4.53363 12.9324C4.38183 12.7724 4.12983 12.7634 3.96699 12.9122C3.81024 13.0764 3.81024 13.3348 3.96699 13.499L4.79667 14.349C4.86849 14.4294 4.97222 14.4739 5.07997 14.4704C5.18672 14.4689 5.28856 14.4253 5.36327 14.349L6.94172 12.8515C7.0982 12.7079 7.10866 12.4647 6.96507 12.3083C6.95772 12.3001 6.94993 12.2923 6.9418 12.2849Z" fill="white"/>
<path d="M12.7497 13.1553H8.09534C7.87181 13.1553 7.69061 13.3365 7.69061 13.56C7.69061 13.7835 7.87181 13.9647 8.09534 13.9647H12.7497C12.9733 13.9647 13.1545 13.7835 13.1545 13.56C13.1545 13.3365 12.9733 13.1553 12.7497 13.1553Z" fill="white"/>
</g>
<defs>
<clipPath id="clip0">
<rect width="17" height="17" fill="white"/>
</clipPath>
</defs>
</svg>
