<svg width="17" height="17" viewBox="0 0 17 17" fill="none" xmlns="http://www.w3.org/2000/svg">
<path d="M8.50001 0C4.88718 0 1.94794 2.93924 1.94794 6.55207C1.94794 8.58404 2.99931 10.944 5.07288 13.5665C6.59017 15.4854 8.0856 16.8116 8.14852 16.8671C8.34933 17.0443 8.65065 17.0443 8.8515 16.8671C8.91442 16.8116 10.4099 15.4854 11.9271 13.5665C14.0007 10.944 15.0521 8.58404 15.0521 6.55207C15.0521 2.93924 12.1128 0 8.50001 0V0ZM8.50001 15.744C7.23746 14.5407 3.01044 10.2364 3.01044 6.55207C3.01044 3.52511 5.47305 1.0625 8.50001 1.0625C11.527 1.0625 13.9896 3.52511 13.9896 6.55207C13.9896 10.2364 9.76249 14.5408 8.50001 15.744Z" fill="white"/>
<path d="M12.5646 6.23727L8.84585 3.04977C8.64689 2.87924 8.35334 2.87924 8.15439 3.04977L4.43564 6.23727C4.21288 6.42819 4.18708 6.76361 4.37803 6.98637C4.56899 7.20913 4.90437 7.23493 5.12713 7.04398L5.57823 6.65729V9.29688C5.57823 9.59026 5.81609 9.82812 6.10948 9.82812H10.8907C11.1841 9.82812 11.422 9.59026 11.422 9.29688V6.65729L11.8731 7.04398C12.0969 7.23579 12.4321 7.20813 12.6222 6.98637C12.8132 6.76361 12.7874 6.42822 12.5646 6.23727ZM10.3595 8.76562H6.64073V5.74656L8.5001 4.15281L10.3595 5.74656V8.76562Z" fill="white"/>
</svg>
