<svg width="17" height="17" viewBox="0 0 17 17" fill="none" xmlns="http://www.w3.org/2000/svg">
<path d="M8.50001 0.416828C8.64522 0.416828 8.78405 0.476328 8.88392 0.581161L12.6027 4.477C12.925 4.81416 12.6856 5.37516 12.2188 5.37516L10.2708 5.37516L10.2708 9.44808C10.2708 9.93612 9.87347 10.3335 9.38543 10.3335L7.61459 10.3335C7.12655 10.3335 6.72918 9.93612 6.72918 9.44808L6.72918 5.37516H4.78126C4.31447 5.37516 4.07505 4.81416 4.39734 4.477L8.11609 0.581161C8.21597 0.476328 8.3548 0.416828 8.50001 0.416828Z" fill="white"/>
<path d="M15.7604 15.1668H1.23958C0.556042 15.1668 0 14.6108 0 13.9272V13.5731C0 12.8895 0.556042 12.3335 1.23958 12.3335H15.7604C16.444 12.3335 17 12.8895 17 13.5731V13.9272C17 14.6108 16.444 15.1668 15.7604 15.1668Z" fill="white"/>
</svg>
