<svg width="17" height="17" viewBox="0 0 17 17" fill="none" xmlns="http://www.w3.org/2000/svg">
<g clip-path="url(#clip0)">
<path d="M16.2271 8.5713V6.18198C16.2271 5.37179 15.5987 4.71289 14.8047 4.649L12.5858 0.773352C12.3801 0.414909 12.0481 0.158718 11.6508 0.052337C11.2554 -0.0533197 10.8419 0.00217091 10.488 0.20816L2.88144 4.63654H1.5455C0.693186 4.63654 6.10352e-05 5.32963 6.10352e-05 6.18198V15.4546C6.10352e-05 16.3069 0.69315 17 1.5455 17H14.6817C15.534 17 16.2271 16.3069 16.2271 15.4546V13.0652C16.6758 12.9052 16.9998 12.4804 16.9998 11.9773V9.6592C16.9998 9.15616 16.6758 8.73132 16.2271 8.5713ZM13.9068 4.63654H10.5393L13.0649 3.16611L13.9068 4.63654ZM12.681 2.49555L9.00355 4.63654H7.47818L12.2996 1.82941L12.681 2.49555ZM10.8769 0.875966C11.0516 0.773714 11.2557 0.746549 11.4508 0.798635C11.6482 0.851445 11.8127 0.978979 11.9149 1.15744L11.9157 1.15885L5.94251 4.63654H4.41721L10.8769 0.875966ZM15.4544 15.4546C15.4544 15.8805 15.1076 16.2273 14.6817 16.2273H1.5455C1.11954 16.2273 0.7728 15.8805 0.7728 15.4546V6.18198C0.7728 5.75602 1.11954 5.40928 1.5455 5.40928H14.6817C15.1076 5.40928 15.4544 5.75602 15.4544 6.18198V8.50012H13.1362C11.8579 8.50012 10.8181 9.53996 10.8181 10.8183C10.8181 12.0966 11.8579 13.1364 13.1362 13.1364H15.4544V15.4546ZM16.2271 11.9773C16.2271 12.1905 16.0539 12.3637 15.8407 12.3637H13.1362C12.2839 12.3637 11.5908 11.6706 11.5908 10.8183C11.5908 9.96595 12.2839 9.27283 13.1362 9.27283H15.8407C16.0539 9.27283 16.2271 9.446 16.2271 9.6592V11.9773Z" fill="white"/>
<path d="M13.1362 10.0457C12.7103 10.0457 12.3635 10.3924 12.3635 10.8184C12.3635 11.2443 12.7103 11.5911 13.1362 11.5911C13.5622 11.5911 13.9089 11.2443 13.9089 10.8184C13.909 10.3924 13.5622 10.0457 13.1362 10.0457Z" fill="white"/>
</g>
<defs>
<clipPath id="clip0">
<rect width="17" height="17" fill="white"/>
</clipPath>
</defs>
</svg>
