<svg width="17" height="17" viewBox="0 0 17 17" fill="none" xmlns="http://www.w3.org/2000/svg">
<path d="M14.5072 2.49286C12.9298 0.915445 10.8412 0.0353946 8.61509 0.00597657C8.57631 0.00245704 8.53783 0 8.50004 0C8.46226 0 8.42377 0.00245704 8.38499 0.00597657C6.15885 0.0353614 4.07027 0.915412 2.49285 2.49283C0.888309 4.09744 0.00463867 6.23081 0.00463867 8.49998C0.00463867 10.7692 0.888309 12.9026 2.49289 14.5071C4.0703 16.0846 6.15885 16.9646 8.38503 16.994C8.42381 16.9975 8.46229 17 8.50004 17C8.53783 17 8.57631 16.9975 8.61509 16.994C10.8413 16.9646 12.9298 16.0846 14.5072 14.5071C16.1118 12.9026 16.9954 10.7692 16.9954 8.49998C16.9955 6.23081 16.1118 4.09744 14.5072 2.49286ZM3.20702 3.207C4.10952 2.3045 5.20207 1.66132 6.39426 1.31382C6.12555 1.62317 5.86434 1.97898 5.62122 2.37326C5.31114 2.87616 5.04266 3.42122 4.81784 3.99753H2.51902C2.7282 3.72085 2.9575 3.45652 3.20702 3.207ZM1.87557 5.00747H4.47781C4.2072 5.95449 4.04716 6.96341 4.00762 7.99503H1.03171C1.10161 6.93903 1.39011 5.92561 1.87557 5.00747ZM1.87561 11.9925C1.39007 11.0744 1.10157 10.061 1.03168 9.00497H4.00758C4.04713 10.0366 4.20717 11.0455 4.47777 11.9925H1.87561ZM3.20705 13.793C2.95746 13.5435 2.72816 13.2792 2.51902 13.0025H4.81787C5.04269 13.5788 5.31114 14.1238 5.62126 14.6267C5.86437 15.021 6.12558 15.3768 6.39429 15.6862C5.20213 15.3387 4.10958 14.6955 3.20705 13.793ZM7.99505 15.7822C7.57434 15.507 7.00942 14.9539 6.48082 14.0967C6.26882 13.7529 6.07827 13.3867 5.90983 13.0025H7.99502V15.7822H7.99505ZM7.99505 11.9925H5.53154C5.23643 11.0568 5.06129 10.0451 5.01825 9.00497H7.99505V11.9925ZM7.99505 7.99503H5.01825C5.06125 6.95487 5.2364 5.94317 5.53154 5.00747H7.99505V7.99503ZM7.99505 3.9975H5.90986C6.0783 3.61327 6.26885 3.24711 6.48085 2.90332C7.00942 2.04608 7.57437 1.49301 7.99509 1.21779V3.9975H7.99505ZM15.1245 5.00747C15.61 5.92564 15.8985 6.93903 15.9684 7.99503H12.9925C12.9529 6.96337 12.7929 5.95446 12.5223 5.00747H15.1245ZM13.7931 3.207C14.0426 3.45652 14.2719 3.72085 14.4811 3.99753H12.1823C11.9575 3.42122 11.689 2.87616 11.3789 2.37326C11.1358 1.97898 10.8746 1.62317 10.6059 1.31382C11.798 1.66132 12.8906 2.3045 13.7931 3.207ZM9.00503 1.21779C9.42575 1.49305 9.99066 2.04608 10.5193 2.90332C10.7313 3.24711 10.9218 3.61327 11.0903 3.9975H9.00506V1.21779H9.00503ZM9.00503 5.00747H11.4685C11.7637 5.9432 11.9388 6.95494 11.9818 7.99503H9.00503V5.00747ZM11.9818 9.00497C11.9388 10.0451 11.7636 11.0568 11.4685 11.9925H9.00499V9.00497H11.9818ZM9.00503 15.7822V13.0025H11.0902C10.9218 13.3867 10.7312 13.7529 10.5192 14.0967C9.99067 14.954 9.42575 15.507 9.00503 15.7822ZM13.7931 13.793C12.8906 14.6955 11.798 15.3387 10.6059 15.6862C10.8746 15.3769 11.1358 15.0211 11.3789 14.6268C11.689 14.1239 11.9575 13.5788 12.1823 13.0025H14.4811C14.272 13.2792 14.0426 13.5435 13.7931 13.793ZM15.1245 11.9925H12.5223C12.7929 11.0455 12.953 10.0366 12.9925 9.00497H15.9684C15.8985 10.061 15.61 11.0744 15.1245 11.9925Z" fill="white"/>
</svg>
